<svg width="913" height="913" viewBox="0 0 913 913" fill="none" xmlns="http://www.w3.org/2000/svg">
<rect width="913" height="913" fill="#FFFFFE"/>
<path fill-rule="evenodd" clip-rule="evenodd" d="M284 149C284.167 151.333 288.6 156 305 156C320 156 322 162 320 170C319.627 171.491 319.428 172.704 319.26 173.727C318.528 178.191 318.391 179.025 307 183.5C293 189 286.5 205 298.5 211.5C300.678 212.68 302.791 213.975 304.945 215.296C314.658 221.252 325.22 227.728 346.5 226.5C358.5 221.5 368.5 210 378.5 188C388.5 166 391.5 155 391.5 152C391.5 149 393.5 143 400 139C400.769 138.527 401.537 138.012 402.326 137.484C408.212 133.541 415.246 128.828 432 135C451 142 458 144.5 467.5 142.5C468.15 142.363 468.826 142.224 469.524 142.08C479.038 140.121 492.821 137.282 504 127.5C506.075 125.684 507.791 124.213 509.239 122.971C516.164 117.032 516.951 116.357 521.5 108.5C522.978 105.947 524.384 103.321 525.767 100.74C529.527 93.717 533.113 87.0218 537.5 83.0001C539.283 81.3654 540.978 79.5099 542.611 77.7223C546.472 73.4955 549.986 69.6487 553.5 70.0001C554.904 70.1405 556.23 71.464 557.997 73.2285C562.521 77.747 569.942 85.1576 589 83.0001C606.255 81.0467 620.118 68.2821 628.933 60.1655C633.656 55.8167 636.93 52.8023 638.5 53.5001C639.122 53.7765 639.954 54.2057 640.967 54.7284C647.285 57.9873 660.642 64.8781 674 61C689.5 56.5 715.5 30 718 24C720.5 18 725.5 13.5 728 18C730.5 22.5 728.5 53.5 722.5 72.5C719.68 81.4309 713.103 87.8209 706.042 94.6819C698.081 102.417 689.505 110.751 685 124C681.314 130.367 679.144 134.937 677.568 138.256C674.44 144.842 673.652 146.503 668 147.5C665.794 147.889 662.949 147.672 659.718 147.426C650.495 146.724 638.127 145.781 628.5 158C627.806 158.555 626.842 157.915 625.222 156.84C621.009 154.044 612.363 148.305 592.5 153C590.442 154.286 588.748 155.573 587.222 156.731C582.816 160.076 579.813 162.357 573.5 160.5C571.569 159.932 569.148 158.848 566.36 157.6C556.874 153.353 543.138 147.204 530 153C513 160.5 494.5 173.5 495.5 196.5C496.5 219.5 503.5 248 524.5 239.5C532.295 238.601 539.73 242.735 545.944 246.189C550.093 248.496 553.697 250.5 556.5 250.5C559.94 250.5 562.896 247.844 565.904 245.142C569.017 242.346 572.185 239.5 576 239.5C577.344 239.5 578.399 239.572 579.233 239.629C581.501 239.785 582.134 239.828 582.5 238C582.667 237.167 582.667 235.167 582.667 232.722C582.667 227.833 582.667 221.167 584 218.5C586 214.5 589.5 209.5 597.5 217.5C601.513 221.513 603.387 222.884 603.88 224.642C604.369 226.389 603.495 228.518 602 234C600.285 240.287 601.348 241.511 603.039 243.459C604.307 244.92 605.929 246.787 607 251.5C609.5 262.5 617.5 276 628.5 276.5C639.5 277 649.5 264.5 650 257.5C650.07 256.521 650.13 255.581 650.187 254.687C650.539 249.189 650.78 245.43 652.5 245C653.11 244.848 653.999 245.299 655.379 246.001C658.526 247.601 664.227 250.5 675 250.5C681.926 250.5 687.254 249.602 691.298 248.92C696.304 248.076 699.34 247.564 701 249.5C701.534 250.123 702.211 251.016 703.002 252.059C706.655 256.877 712.746 264.911 718.5 264.5C721.297 264.3 724.812 263.063 728.376 261.808C733.732 259.923 739.198 257.999 742.5 259.5C743.042 259.229 743.033 257.416 743.021 254.867C742.988 248.009 742.929 235.823 753.5 234C754.65 233.425 753.981 229.873 753.11 225.247C752.467 221.829 751.712 217.824 751.5 214C751 205 753 200 763.5 201.5C770.788 202.541 774.945 204.787 777.307 206.063C778.348 206.626 779.041 207 779.5 207C779.942 207 782.116 204.748 785.27 201.479C792.834 193.644 806.032 179.97 814.5 177.5C816 179 817 190 813.5 199.5C812.333 202.667 811.167 205 810.148 207.037C808.111 211.111 806.667 214 807 220C807 221.212 807.147 222.247 807.27 223.114C807.654 225.823 807.804 226.879 802.5 226.5C795.5 226 775 231.5 762.5 251.5C761 258.5 764.5 261.5 777.5 262.5C779.5 263.5 780.5 275.5 771.5 280.5C768.488 282.173 764.916 282.727 760.953 283.341C753.074 284.561 743.648 286.022 734 297C719.5 313.5 721 331 723 336.5C725 342 729.5 350 745 367C760.5 384 756.5 389.5 747.5 391C738.5 392.5 728 397 732.5 406.5C736.177 414.262 737.517 414.347 742.521 414.664C743.641 414.735 744.945 414.817 746.5 415C751 415 751.5 415 752 419C752.099 419.791 752.354 420.737 752.642 421.805C753.81 426.143 755.518 432.482 749.5 438.5C742 446 737.5 463 737.5 476C737.5 476.436 736.614 476.45 735.27 476.47C731.99 476.521 725.983 476.615 723.5 483C721.292 488.678 722.666 493.958 723.479 497.082C723.955 498.91 724.238 500 723.5 500C723.265 500 722.907 499.938 722.461 499.861C719.105 499.281 710.793 497.846 713 515.5C715.024 531.694 719.343 531.17 721.445 530.915C721.938 530.855 722.31 530.81 722.5 531C723.5 532 724.5 535 723.5 544C722.5 553 731.5 582 760 584C788.5 586 801.5 577.5 809.5 562.5C817.5 547.5 823 529 823.5 523C823.544 522.471 823.584 521.954 823.623 521.451C824.027 516.253 824.309 512.632 827.5 514C829.312 514.777 830.052 523.06 830.83 531.771C831.555 539.883 832.312 548.366 834 551.5C835.427 554.151 837.271 556.885 838.987 559.431C841.479 563.128 843.704 566.427 844 568.5C844.016 568.613 844.034 568.736 844.053 568.868C844.622 572.798 846.322 584.549 841 586C835.5 587.5 798.5 607 793.5 618C790.922 623.671 785.686 626.286 779.984 629.133C774.627 631.807 768.86 634.687 764.5 640.5C763.272 642.137 762.175 643.569 761.193 644.851C754.973 652.968 753.364 655.069 752.5 665C751.5 676.5 730.5 687.5 720.5 687C710.5 686.5 698.5 688.5 689.5 709C682.665 724.568 684.481 733.216 686.408 742.388C687.018 745.294 687.639 748.252 688 751.5C688.442 755.476 689.057 758.888 689.578 761.775C690.824 768.689 691.527 772.589 688 774C686.978 774.409 684.346 775.11 680.665 776.092C666.342 779.91 636.127 787.964 623 799.5C621.232 801.053 619.533 802.515 617.899 803.921C604.279 815.639 595.143 823.5 588 848.5C583.114 865.6 583.264 871.511 583.323 873.863C583.361 875.363 583.363 875.416 582 876C578.5 877.5 573.5 877 566.5 873.5C566.142 873.321 565.772 873.135 565.392 872.944C558.341 869.407 547.77 864.102 543.5 866C539 868 538.5 868 536.5 864.5C536.328 864.199 536.09 863.685 535.769 862.99C532.348 855.601 519.506 827.856 477 821C457 818 439.5 835 436 847.5C432.5 860 425.5 873 406 867.5C395.745 864.607 384.383 858.396 374.533 853.011C365.654 848.157 358.004 843.974 353.5 843.5C344 842.5 326.5 849 309.5 861C295.5 867.5 286.5 871 282.5 866C279.41 862.137 279.005 851.411 278.751 844.656C278.676 842.668 278.614 841.023 278.5 840C278 835.5 273.5 824 258.5 813C243.5 802 218.5 786.5 158 780C130 779 126 777 123.5 775C121 773 119 765.5 120.5 763.5C122 761.5 122 761.5 126.5 761C131 760.5 144.5 755 146.5 746.5C146.787 745.282 147.114 744.106 147.447 742.908C149.441 735.748 151.64 727.847 146.5 706C140.5 680.5 120 661.5 100 663C94.8583 664.402 94.0864 663.62 91.9651 661.469C91.8173 661.319 91.6629 661.163 91.5 661C91.3385 660.838 91.0518 660.564 90.6544 660.184C84.8994 654.681 55.9186 626.965 47.5 597.5C47.4142 597.157 47.33 596.824 47.2484 596.5C45.902 591.167 45.2287 588.5 49 588.5C49.5931 588.5 50.571 588.643 51.8798 588.834C59.3979 589.933 77.8362 592.628 97 579C119.5 563 124.5 544.5 123 519C121.989 501.806 115.976 487.34 112.627 479.281C111.008 475.387 110.011 472.989 110.5 472.5C112 471 117.5 461.5 114 454C112.446 450.669 106.552 447.339 100.349 443.833C92.5844 439.444 84.3339 434.781 83.5 429.5C82 420 87.5 415.5 95.5 411C103.5 406.5 134.5 379 112.5 366C98.2126 357.557 88.1427 359.659 82.0166 360.937C78.7095 361.627 76.5517 362.078 75.5 360.5C72.5 356 70.5 350 79 331C79 330.197 77.6071 328.156 75.7989 325.506C71.978 319.907 66.303 311.591 68 306.5C70.4609 299.117 71.9528 299.971 75.3372 301.907L75.5 302C76.0409 302.309 77.1551 303.144 78.7318 304.325C87.3569 310.785 109.823 327.614 128 325.5C149.5 323 158.5 321 180 284C181.712 280.291 184.238 282.768 187.578 286.044C190.091 288.509 193.065 291.427 196.5 292.5C204.5 295 213.5 291 216 287.5C218.5 284 220.5 279.5 212.5 272.5C207.942 268.512 206.792 267.607 206.739 266.643C206.699 265.914 207.285 265.151 207.5 263C207.516 262.841 207.534 262.661 207.555 262.463C208.175 256.454 210.569 233.229 197.5 225C184 216.5 181 213.5 181 205.5C181 201.807 180.254 199.605 179.697 197.961C179.047 196.044 178.654 194.884 180 193C182.5 189.5 189.5 189 195.5 190.5C196.589 190.772 197.679 191.094 198.753 191.412C203.596 192.842 208.135 194.183 211 190.5C211.803 189.468 212.895 188.383 214.193 187.094C218.55 182.766 225.221 176.141 231 161.5C238.5 142.5 263.5 111.5 268 112C272.5 112.5 277 117 278 120.5C278.261 121.415 278.215 123.405 278.156 125.95C277.99 133.14 277.722 144.751 284 149ZM425 781C565.833 781 680 666.833 680 526C680 385.167 565.833 271 425 271C284.167 271 170 385.167 170 526C170 666.833 284.167 781 425 781Z" fill="#9F2637"/>
<path d="M833.5 476.5C825.9 478.5 821.333 459.333 820 449.5C819.622 447 821 444.5 825.5 442C830 439.5 826.5 429 835 423.5C843.5 418 852.5 425.5 847 429C841.5 432.5 843 438 839 451C835 464 843 474 833.5 476.5Z" fill="#9F2637"/>
</svg>
